<svg width="512" height="512" viewBox="0 0 512 512" fill="none" xmlns="http://www.w3.org/2000/svg">
  <rect width="512" height="512" rx="112" fill="#4F46E5"/>
  <path d="M128 160C128 142.327 142.327 128 160 128H352C369.673 128 384 142.327 384 160V352C384 369.673 369.673 384 352 384H160C142.327 384 128 369.673 128 352V160Z" fill="white" fill-opacity="0.1"/>
  <path d="M256 160L160 213.333V320L256 373.333L352 320V213.333L256 160Z" stroke="white" stroke-width="24" stroke-linecap="round" stroke-linejoin="round"/>
  <path d="M256 160V373.333" stroke="white" stroke-width="24" stroke-linecap="round" stroke-linejoin="round"/>
  <path d="M160 213.333L256 266.667L352 213.333" stroke="white" stroke-width="24" stroke-linecap="round" stroke-linejoin="round"/>
  <circle cx="256" cy="256" r="48" fill="#F59E0B"/>
  <path d="M256 224V288M224 256H288" stroke="white" stroke-width="8" stroke-linecap="round"/>
</svg>
